<?xml version="1.0" encoding="UTF-8" standalone="no"?>
<!DOCTYPE svg PUBLIC "-//W3C//DTD SVG 1.1//EN" "http://www.w3.org/Graphics/SVG/1.1/DTD/svg11.dtd">
<svg width="100%" height="100%" viewBox="0 0 64 64" version="1.1" xmlns="http://www.w3.org/2000/svg" xmlns:xlink="http://www.w3.org/1999/xlink" xml:space="preserve" xmlns:serif="http://www.serif.com/" style="fill-rule:evenodd;clip-rule:evenodd;stroke-linecap:round;">
    <g transform="matrix(1.564371,0,0,1.564371,-17.772458,-17.772458)">
        <ellipse cx="32" cy="44" rx="20" ry="8" style="fill:rgb(214,183,136);"/>
    </g>
    <g transform="matrix(1.564371,0,0,1.564371,-17.772458,-17.772458)">
        <path d="M12,28C12,19.164 20.954,12 32,12C43.046,12 52,19.164 52,28C52,35.5 44.5,42 32,42C19.5,42 12,35.5 12,28Z" style="fill:rgb(184,121,58);fill-rule:nonzero;"/>
    </g>
    <g transform="matrix(1.564371,0,0,1.564371,-17.772458,-17.772458)">
        <path d="M14,27C14,20.2 22.2,14.7 32.2,14.7C42.2,14.7 50,20.2 50,27C50,28.2 49.8,29.4 49.4,30.5C46.5,37.4 36.4,41.7 26.2,40.9C19.1,40.4 14,37.3 14,33.2C14,31.3 14.1,29.4 14.2,27L14,27Z" style="fill:rgb(201,138,76);fill-rule:nonzero;"/>
    </g>
    <g transform="matrix(1.564371,0,0,1.564371,-17.772458,-17.772458)">
        <path d="M22,22C25.5,19.8 29.2,18.8 33,19" style="fill:none;fill-rule:nonzero;stroke:rgb(242,210,167);stroke-opacity:0.95;stroke-width:2.2px;"/>
    </g>
    <g transform="matrix(1.564371,0,0,1.564371,-17.772458,-17.772458)">
        <path d="M20,27C23.7,24.9 27.6,23.9 31.7,24" style="fill:none;fill-rule:nonzero;stroke:rgb(242,210,167);stroke-opacity:0.95;stroke-width:2.2px;"/>
    </g>
    <g transform="matrix(1.564371,0,0,1.564371,-17.772458,-17.772458)">
        <path d="M18,32C22,30 26.1,29.1 30.4,29.2" style="fill:none;fill-rule:nonzero;stroke:rgb(242,210,167);stroke-opacity:0.95;stroke-width:2.2px;"/>
    </g>
    <g transform="matrix(1.564371,0,0,1.564371,-17.772458,-17.772458)">
        <path d="M22,22C25.5,19.8 29.2,18.8 33,19" style="fill:none;fill-rule:nonzero;stroke:rgb(142,85,41);stroke-opacity:0.6;stroke-width:1px;"/>
    </g>
    <g transform="matrix(1.564371,0,0,1.564371,-17.772458,-17.772458)">
        <path d="M20,27C23.7,24.9 27.6,23.9 31.7,24" style="fill:none;fill-rule:nonzero;stroke:rgb(142,85,41);stroke-opacity:0.6;stroke-width:1px;"/>
    </g>
    <g transform="matrix(1.564371,0,0,1.564371,-17.772458,-17.772458)">
        <path d="M18,32C22,30 26.1,29.1 30.4,29.2" style="fill:none;fill-rule:nonzero;stroke:rgb(142,85,41);stroke-opacity:0.6;stroke-width:1px;"/>
    </g>
    <g transform="matrix(1.564371,0,0,1.564371,-17.772458,-17.772458)">
        <ellipse cx="32" cy="44" rx="14" ry="5" style="fill:rgb(161,116,75);fill-opacity:0.25;"/>
    </g>
    <g transform="matrix(1.564371,0,0,1.564371,-17.772458,-17.772458)">
        <circle cx="40" cy="23" r="0.8" style="fill:rgb(242,210,167);"/>
    </g>
    <g transform="matrix(1.564371,0,0,1.564371,-17.772458,-17.772458)">
        <circle cx="35" cy="26" r="0.8" style="fill:rgb(242,210,167);"/>
    </g>
    <g transform="matrix(1.564371,0,0,1.564371,-17.772458,-17.772458)">
        <circle cx="28" cy="24" r="0.7" style="fill:rgb(242,210,167);"/>
    </g>
</svg>
